<?xml version="1.0" encoding="utf-8"?>
<!-- Generator: Adobe Illustrator 21.0.2, SVG Export Plug-In . SVG Version: 6.00 Build 0)  -->
<svg version="1.1" id="Calque_1" xmlns="http://www.w3.org/2000/svg" xmlns:xlink="http://www.w3.org/1999/xlink" x="0px" y="0px"
	 viewBox="0 0 66 62" style="enable-background:new 0 0 66 62;" xml:space="preserve">
<style type="text/css">
	.st0{fill:#1D1D1B;}
</style>
<g>
	<path class="st0" d="M37.2,18.3C36.8,8.6,28.8,0.8,19,0.8c-1.2,0-2.3,0.1-3.4,0.3C12,1.7,8.7,3.4,6.1,5.9
		c-3.5,3.3-5.6,7.8-5.9,12.6l0,1.3c0,3.7,1.8,7.1,4.5,9.2c0.2,0.1,0.4,0.3,0.7,0.5c0,0,0,0,0,0c0.3,0.2,0.6,0.4,0.9,0.6
		c0,0,0.1,0,0.1,0.1c0.3,0.2,0.6,0.3,1,0.5c2.2,1,4.4,1,4.4,1c1.8,0,3.3-1.5,3.3-3.3c0-1.8-1.5-3.3-3.3-3.3c-1.3,0-2.5,0.8-3,2
		l-0.1,0.4c-0.3,1.1-1.3,2-2.6,2c-0.3,0-0.6-0.1-0.8-0.2c-2.9-2.1-4.9-5.5-4.9-9.4l0-1.2c0.3-4.8,2.4-9.2,5.8-12.4
		C6.6,5.7,7,5.3,7.5,5c1.3-0.8,2.5-0.6,3.2-0.5l0.1,0c7.4,0.6,13.3,6.8,13.3,14.3v42.3c0,0.5,0.4,1,1,1h11.1c0.5,0,1-0.4,1-1
		L37.2,18.3L37.2,18.3z"/>
	<path class="st0" d="M55,62.1c2-4.1,5.5-7.2,9.8-8.6c0.6-0.2,1.1-0.8,1.1-1.5V18.4l-0.1,0C65.5,8.6,57.5,0.8,47.7,0.8
		c-3.1,0-6,0.8-8.6,2.2L39,3c-0.2,0.1-0.4,0.4-0.4,0.7c0,0.4,0.4,0.8,0.8,0.8l0.1,0c7.4,0.6,13.3,6.8,13.3,14.3v42.3
		c0,0.5,0.4,1,1,1H55z"/>
</g>
</svg>
