<?xml version="1.0" encoding="utf-8"?>
<!-- Generator: Adobe Illustrator 21.0.2, SVG Export Plug-In . SVG Version: 6.00 Build 0)  -->
<svg version="1.1" id="Calque_1" xmlns="http://www.w3.org/2000/svg" xmlns:xlink="http://www.w3.org/1999/xlink" x="0px" y="0px"
	 viewBox="0 0 55 55" style="enable-background:new 0 0 55 55;" xml:space="preserve">
<style type="text/css">
	.st0{fill:#1D1D1B;}
</style>
<path class="st0" d="M27.5,39.6c-6.7,0-12.1-5.4-12.1-12.1s5.4-12.1,12.1-12.1s12.1,5.4,12.1,12.1S34.2,39.6,27.5,39.6L27.5,39.6z
	 M37.7,29.2c-0.4-0.1-3.2-1-6.4-0.4c1.4,3.7,1.9,6.7,2,7.4C35.6,34.5,37.3,32,37.7,29.2L37.7,29.2z M31.5,37
	c-0.2-0.9-0.8-4.1-2.2-7.8c0,0,0,0-0.1,0c-5.8,2-7.9,6.1-8.1,6.5c1.8,1.4,4,2.2,6.4,2.2C28.9,37.9,30.3,37.6,31.5,37L31.5,37z
	 M19.8,34.4c0.2-0.4,3.1-5.1,8.4-6.8c0.1,0,0.3-0.1,0.4-0.1c-0.3-0.6-0.5-1.2-0.8-1.8c-5.2,1.5-10.2,1.5-10.6,1.5c0,0.1,0,0.2,0,0.3
	C17.2,30.2,18.2,32.6,19.8,34.4L19.8,34.4z M17.4,25.4c0.5,0,4.7,0,9.6-1.3c-1.7-3-3.6-5.6-3.8-6C20.2,19.5,18,22.2,17.4,25.4
	L17.4,25.4z M25.1,17.5c0.3,0.4,2.2,2.9,3.9,6.1c3.7-1.4,5.2-3.5,5.4-3.7c-1.8-1.6-4.2-2.6-6.9-2.6C26.7,17.2,25.9,17.3,25.1,17.5
	L25.1,17.5z M35.5,21c-0.2,0.3-2,2.5-5.8,4.1c0.2,0.5,0.5,1,0.7,1.5c0.1,0.2,0.2,0.4,0.2,0.5c3.4-0.4,6.9,0.3,7.2,0.3
	C37.8,25,37,22.7,35.5,21L35.5,21z"/>
</svg>
