<?xml version="1.0" encoding="utf-8"?>
<!-- Generator: Adobe Illustrator 21.0.2, SVG Export Plug-In . SVG Version: 6.00 Build 0)  -->
<svg version="1.1" id="Calque_1" xmlns="http://www.w3.org/2000/svg" xmlns:xlink="http://www.w3.org/1999/xlink" x="0px" y="0px"
	 viewBox="0 0 55 55" style="enable-background:new 0 0 55 55;" xml:space="preserve">
<style type="text/css">
	.st0{fill:#221E1B;}
</style>
<path class="st0" d="M32,39c-1.2,0.3-2.4,0.5-3.7,0.5c-1.3,0-2.6-0.2-3.8-0.5v-0.2c0-0.4,0-2.1,0-3.4c-4.2,0.9-5.1-2-5.1-2
	c-0.7-1.7-1.7-2.2-1.7-2.2c-1.4-0.9,0.1-0.9,0.1-0.9c1.5,0.1,2.3,1.6,2.3,1.6c1.3,2.3,3.5,1.6,4.4,1.3c0.1-1,0.5-1.6,1-2
	c-3.4-0.4-6.9-1.7-6.9-7.5c0-1.6,0.6-3,1.6-4.1c-0.2-0.4-0.7-1.9,0.1-4c0,0,1.3-0.4,4.2,1.5c1.2-0.3,2.5-0.5,3.8-0.5
	s2.6,0.2,3.8,0.5c2.9-2,4.1-1.5,4.1-1.5c0.8,2.1,0.3,3.6,0.2,4c1,1.1,1.6,2.4,1.6,4.1c0,5.8-3.5,7.1-6.9,7.4c0.5,0.5,1,1.4,1,2.8
	c0,2,0,4.5,0,5L32,39z"/>
</svg>
