<?xml version="1.0" encoding="utf-8"?>
<!-- Generator: Adobe Illustrator 21.0.2, SVG Export Plug-In . SVG Version: 6.00 Build 0)  -->
<svg version="1.1" id="Calque_1" xmlns="http://www.w3.org/2000/svg" xmlns:xlink="http://www.w3.org/1999/xlink" x="0px" y="0px"
	 viewBox="0 0 55 55" style="enable-background:new 0 0 55 55;" xml:space="preserve">
<style type="text/css">
	.st0{fill:#1D1D1B;}
</style>
<g>
	<path class="st0" d="M22.6,36.1L19,36l0.1-11.5l3.6,0L22.6,36.1z M20.9,22.9c-1.1,0-2.1-0.9-2.1-2.1c0-1.1,0.9-2.1,2.1-2.1
		c1.1,0,2.1,0.9,2.1,2.1C23,22.1,22.1,23,20.9,22.9z M36,36.2l-3.6,0l0-5.6c0-1.3,0-3.1-1.9-3.1s-2.1,1.5-2.1,3l0,5.7l-3.5,0
		L25,24.6l3.4,0l0,1.6l0,0c0.5-0.9,1.6-1.9,3.4-1.9c3.6,0,4.3,2.4,4.3,5.5L36,36.2z"/>
</g>
</svg>
